<svg width="48" height="48" viewBox="0 0 48 48" fill="none" xmlns="http://www.w3.org/2000/svg">
<g clip-path="url(#clip0_1027_19546)">
<path d="M24.7519 16.9995C24.7519 16.5853 24.4161 16.2495 24.0019 16.2495C23.5877 16.2495 23.2519 16.5853 23.2519 16.9995V25.6894L20.0322 22.4696C19.7393 22.1767 19.2644 22.1767 18.9715 22.4696C18.6786 22.7625 18.6786 23.2374 18.9715 23.5303L22.7644 27.3232C23.4479 28.0066 24.5559 28.0066 25.2393 27.3232L29.0303 23.5322C29.3232 23.2393 29.3232 22.7644 29.0303 22.4715C28.7374 22.1787 28.2625 22.1787 27.9696 22.4715L24.7519 25.6893V16.9995Z" fill="#616161"/>
<path fill-rule="evenodd" clip-rule="evenodd" d="M16 26.25C16.4142 26.25 16.75 26.5858 16.75 27V29C16.75 29.6904 17.3096 30.25 18 30.25H30C30.6904 30.25 31.25 29.6904 31.25 29V27C31.25 26.5858 31.5858 26.25 32 26.25C32.4142 26.25 32.75 26.5858 32.75 27V29C32.75 30.5188 31.5188 31.75 30 31.75H18C16.4812 31.75 15.25 30.5188 15.25 29V27C15.25 26.5858 15.5858 26.25 16 26.25Z" fill="#616161"/>
</g>
<defs>
<clipPath id="clip0_1027_19546">
<rect width="24" height="24" fill="white" transform="translate(12 12)"/>
</clipPath>
</defs>
</svg>
