<svg width="24" height="24" viewBox="0 0 24 24" fill="none" xmlns="http://www.w3.org/2000/svg">
<path d="M24 12C24 18.6274 18.6274 24 12 24C5.37258 24 0 18.6274 0 12C0 5.37258 5.37258 0 12 0C18.6274 0 24 5.37258 24 12Z" fill="#BDBDBD"/>
<path d="M7.28566 7.28595C6.91373 7.65788 6.91373 8.2609 7.28566 8.63283L10.6528 12L7.28566 15.3672C6.91373 15.7391 6.91373 16.3421 7.28566 16.714C7.65759 17.086 8.2606 17.086 8.63253 16.714L11.9997 13.3469L15.3669 16.714C15.7388 17.086 16.3418 17.086 16.7138 16.714C17.0857 16.3421 17.0857 15.7391 16.7138 15.3672L13.3466 12L16.7138 8.63282C17.0857 8.2609 17.0857 7.65788 16.7138 7.28595C16.3418 6.91403 15.7388 6.91403 15.3669 7.28595L11.9997 10.6531L8.63253 7.28595C8.2606 6.91403 7.65759 6.91403 7.28566 7.28595Z" fill="white"/>
</svg>
