<svg width="39" height="40" viewBox="0 0 39 40" fill="none" xmlns="http://www.w3.org/2000/svg">
<path d="M29.3149 9.81386C28.7935 9.29245 27.9481 9.29245 27.4267 9.81386L19.2445 17.996L11.3771 10.1286C10.8557 9.60715 10.0103 9.60715 9.48891 10.1286C8.9675 10.65 8.9675 11.4953 9.48891 12.0167L17.3564 19.8842L9.17421 28.0663C8.65281 28.5877 8.6528 29.4331 9.17421 29.9545C9.69562 30.4759 10.541 30.4759 11.0624 29.9545L19.2445 21.7724L27.7414 30.2692C28.2628 30.7906 29.1082 30.7906 29.6296 30.2692C30.151 29.7478 30.151 28.9024 29.6296 28.381L21.1327 19.8842L29.3149 11.702C29.8363 11.1806 29.8363 10.3353 29.3149 9.81386Z" fill="#EF2B2A"/>
<path fill-rule="evenodd" clip-rule="evenodd" d="M27.1764 9.56358C27.836 8.90394 28.9055 8.90394 29.5652 9.56358C30.2248 10.2232 30.2248 11.2927 29.5652 11.9523L21.6333 19.8842L29.8799 28.1308C30.5395 28.7904 30.5395 29.8599 29.8799 30.5195C29.2202 31.1791 28.1507 31.1791 27.4911 30.5195L19.2445 22.273L11.3127 30.2048C10.653 30.8645 9.58356 30.8645 8.92393 30.2048C8.26429 29.5452 8.26429 28.4757 8.92393 27.8161L16.8558 19.8842L9.23863 12.267C8.57899 11.6074 8.57899 10.5379 9.23863 9.87827C9.89826 9.21864 10.9677 9.21864 11.6274 9.87827L19.2445 17.4954L27.1764 9.56358ZM19.2445 17.996L11.3771 10.1286C10.8557 9.60715 10.0103 9.60715 9.48891 10.1286C8.9675 10.65 8.9675 11.4953 9.48891 12.0167L17.3564 19.8842L9.17421 28.0663C8.65281 28.5877 8.6528 29.4331 9.17421 29.9545C9.69562 30.4759 10.541 30.4759 11.0624 29.9545L19.2445 21.7724L27.7414 30.2692C28.2628 30.7906 29.1082 30.7906 29.6296 30.2692C30.151 29.7478 30.151 28.9024 29.6296 28.381L21.1327 19.8842L29.3149 11.702C29.8363 11.1806 29.8363 10.3353 29.3149 9.81386C28.7935 9.29245 27.9481 9.29245 27.4267 9.81386L19.2445 17.996Z" fill="#EF2B2A"/>
</svg>
