<svg width="48" height="48" viewBox="0 0 48 48" fill="none" xmlns="http://www.w3.org/2000/svg">
<path d="M48 24C48 37.2548 37.2548 48 24 48C10.7452 48 0 37.2548 0 24C0 10.7452 10.7452 0 24 0C37.2548 0 48 10.7452 48 24Z" fill="#BDBDBD"/>
<path d="M36.1825 33.3471C36.0494 32.9194 35.8802 32.5039 35.6767 32.105C35.047 30.8211 34.1931 29.6599 33.1552 28.6761C30.6796 26.3244 27.3954 25.0132 23.9807 25.0132C20.5661 25.0132 17.2819 26.3244 14.8062 28.6761C13.7736 29.661 12.9248 30.8221 12.2997 32.105C12.0984 32.504 11.9316 32.9196 11.8013 33.3471C11.7368 33.6244 11.7382 33.9129 11.8052 34.1896C11.8723 34.4663 12.0033 34.7235 12.1877 34.9404C12.3721 35.1573 12.6048 35.3281 12.8671 35.4389C13.1294 35.5497 13.4139 35.5975 13.698 35.5784H34.2858C34.5699 35.5975 34.8545 35.5497 35.1167 35.4389C35.379 35.3281 35.6117 35.1573 35.7961 34.9404C35.9805 34.7235 36.1115 34.4663 36.1786 34.1896C36.2457 33.9129 36.247 33.6244 36.1825 33.3471Z" fill="white"/>
<path d="M24.1024 23.2983C25.4012 23.3175 26.6763 22.9498 27.7655 22.2421C28.8547 21.5343 29.7086 20.5184 30.2187 19.3238C30.7287 18.1292 30.8718 16.8099 30.6297 15.5337C30.3876 14.2575 29.7712 13.0823 28.859 12.1575C27.9469 11.2327 26.7802 10.6002 25.5075 10.3406C24.2348 10.0809 22.9135 10.2059 21.712 10.6995C20.5105 11.193 19.483 12.0329 18.7603 13.1122C18.0377 14.1916 17.6525 15.4616 17.6538 16.7605C17.648 17.6132 17.8101 18.4587 18.131 19.2487C18.4519 20.0388 18.9253 20.7579 19.5241 21.365C20.1229 21.9721 20.8354 22.4553 21.621 22.787C22.4065 23.1187 23.2497 23.2925 24.1024 23.2983Z" fill="white"/>
</svg>
