<svg width="48" height="48" viewBox="0 0 48 48" fill="none" xmlns="http://www.w3.org/2000/svg">
<mask id="path-1-inside-1_1719_40689" fill="white">
<path fill-rule="evenodd" clip-rule="evenodd" d="M33 10H15C14.4477 10 14 10.4477 14 11V16H34V11C34 10.4477 33.5523 10 33 10ZM11 11V16H8C6.89543 16 6 16.8954 6 18V33C6 34.1046 6.89543 35 8 35H12V37C12 39.2091 13.7909 41 16 41H32C34.2091 41 36 39.2091 36 37V35H40C41.1046 35 42 34.1046 42 33V18C42 16.8954 41.1046 16 40 16H37V11C37 8.79086 35.2091 7 33 7H15C12.7909 7 11 8.79086 11 11ZM36 32H39V19H37H34H14H11H9V32H12V29H36V32Z"/>
</mask>
<path fill-rule="evenodd" clip-rule="evenodd" d="M33 10H15C14.4477 10 14 10.4477 14 11V16H34V11C34 10.4477 33.5523 10 33 10ZM11 11V16H8C6.89543 16 6 16.8954 6 18V33C6 34.1046 6.89543 35 8 35H12V37C12 39.2091 13.7909 41 16 41H32C34.2091 41 36 39.2091 36 37V35H40C41.1046 35 42 34.1046 42 33V18C42 16.8954 41.1046 16 40 16H37V11C37 8.79086 35.2091 7 33 7H15C12.7909 7 11 8.79086 11 11ZM36 32H39V19H37H34H14H11H9V32H12V29H36V32Z" fill="white"/>
<path d="M14 16H11V19H14V16ZM34 16V19H37V16H34ZM11 16V19H14V16H11ZM12 35H15V32H12V35ZM36 35V32H33V35H36ZM37 16H34V19H37V16ZM36 32H33V35H36V32ZM39 32V35H42V32H39ZM39 19H42V16H39V19ZM9 19V16H6V19H9ZM9 32H6V35H9V32ZM12 32V35H15V32H12ZM12 29V26H9V29H12ZM36 29H39V26H36V29ZM15 13H33V7H15V13ZM17 11C17 12.1046 16.1046 13 15 13V7C12.7909 7 11 8.79086 11 11H17ZM17 16V11H11V16H17ZM34 13H14V19H34V13ZM31 11V16H37V11H31ZM33 13C31.8954 13 31 12.1046 31 11H37C37 8.79086 35.2091 7 33 7V13ZM14 16V11H8V16H14ZM8 19H11V13H8V19ZM9 18C9 18.5523 8.55228 19 8 19V13C5.23858 13 3 15.2386 3 18H9ZM9 33V18H3V33H9ZM8 32C8.55228 32 9 32.4477 9 33H3C3 35.7614 5.23858 38 8 38V32ZM12 32H8V38H12V32ZM9 35V37H15V35H9ZM9 37C9 40.866 12.134 44 16 44V38C15.4477 38 15 37.5523 15 37H9ZM16 44H32V38H16V44ZM32 44C35.866 44 39 40.866 39 37H33C33 37.5523 32.5523 38 32 38V44ZM39 37V35H33V37H39ZM40 32H36V38H40V32ZM39 33C39 32.4477 39.4477 32 40 32V38C42.7614 38 45 35.7614 45 33H39ZM39 18V33H45V18H39ZM40 19C39.4477 19 39 18.5523 39 18H45C45 15.2386 42.7614 13 40 13V19ZM37 19H40V13H37V19ZM34 11V16H40V11H34ZM33 10C33.5523 10 34 10.4477 34 11H40C40 7.13401 36.866 4 33 4V10ZM15 10H33V4H15V10ZM14 11C14 10.4477 14.4477 10 15 10V4C11.134 4 8 7.13401 8 11H14ZM36 35H39V29H36V35ZM42 32V19H36V32H42ZM39 16H37V22H39V16ZM37 16H34V22H37V16ZM34 16H14V22H34V16ZM14 16H11V22H14V16ZM11 16H9V22H11V16ZM6 19V32H12V19H6ZM9 35H12V29H9V35ZM9 29V32H15V29H9ZM36 26H12V32H36V26ZM39 32V29H33V32H39Z" fill="#222222" mask="url(#path-1-inside-1_1719_40689)"/>
</svg>
