<svg width="64" height="64" viewBox="0 0 64 64" fill="none" xmlns="http://www.w3.org/2000/svg">
<rect width="64" height="64" fill="#D9D9D9"/>
<path d="M12.8 23.3484C12.8 21.7926 13.8073 20.5313 15.05 20.5313H22.925V43.0687H15.05C13.8073 43.0687 12.8 41.8074 12.8 40.2515V23.3484Z" fill="#BDBDBD"/>
<path d="M43.3689 8.25577L22.3276 20.231C22.0063 20.4139 21.8 20.815 21.8 21.2569V42.3431C21.8 42.785 22.0063 43.1861 22.3276 43.369L43.3689 55.3442C44.8587 56.1921 46.55 54.8285 46.55 52.7796V10.8204C46.55 8.77154 44.8586 7.40793 43.3689 8.25577Z" fill="white"/>
<path d="M46.55 26.1656H48.8C50.0426 26.1656 51.05 27.4269 51.05 28.9828V34.6172C51.05 36.1731 50.0426 37.4344 48.8 37.4344H46.55V26.1656Z" fill="#BDBDBD"/>
</svg>
