<svg width="40" height="40" viewBox="0 0 40 40" fill="none" xmlns="http://www.w3.org/2000/svg">
<path d="M30.3247 9.34726C29.7816 8.80418 28.9011 8.80418 28.3581 9.34726L19.836 17.8693L11.6417 9.67503C11.0986 9.13196 10.2181 9.13196 9.67503 9.67503C9.13196 10.2181 9.13196 11.0986 9.67503 11.6417L17.8693 19.836L9.34726 28.3581C8.80418 28.9011 8.80418 29.7816 9.34726 30.3247C9.89033 30.8678 10.7708 30.8678 11.3139 30.3247L19.836 21.8026L28.6858 30.6525C29.2289 31.1955 30.1094 31.1955 30.6525 30.6525C31.1955 30.1094 31.1955 29.2289 30.6525 28.6858L21.8026 19.836L30.3247 11.3139C30.8678 10.7708 30.8678 9.89033 30.3247 9.34726Z" fill="#EF2B2A"/>
<path fill-rule="evenodd" clip-rule="evenodd" d="M28.0974 9.08657C28.7844 8.39953 29.8983 8.39953 30.5854 9.08657C31.2724 9.77361 31.2724 10.8875 30.5854 11.5746L22.324 19.836L30.9132 28.4251C31.6002 29.1122 31.6002 30.2261 30.9132 30.9132C30.2261 31.6002 29.1122 31.6002 28.4251 30.9132L19.836 22.324L11.5746 30.5854C10.8875 31.2724 9.77361 31.2724 9.08657 30.5854C8.39953 29.8983 8.39953 28.7844 9.08657 28.0974L17.348 19.836L9.41434 11.9023C8.7273 11.2153 8.7273 10.1014 9.41434 9.41434C10.1014 8.7273 11.2153 8.7273 11.9023 9.41434L19.836 17.348L28.0974 9.08657ZM19.836 17.8693L11.6417 9.67503C11.0986 9.13196 10.2181 9.13196 9.67503 9.67503C9.13196 10.2181 9.13196 11.0986 9.67503 11.6417L17.8693 19.836L9.34726 28.3581C8.80418 28.9011 8.80418 29.7816 9.34726 30.3247C9.89033 30.8678 10.7708 30.8678 11.3139 30.3247L19.836 21.8026L28.6858 30.6525C29.2289 31.1955 30.1094 31.1955 30.6525 30.6525C31.1955 30.1094 31.1955 29.2289 30.6525 28.6858L21.8026 19.836L30.3247 11.3139C30.8678 10.7708 30.8678 9.89033 30.3247 9.34726C29.7816 8.80418 28.9011 8.80418 28.3581 9.34726L19.836 17.8693Z" fill="#EF2B2A"/>
<path d="M30.3247 9.34726C29.7816 8.80418 28.9011 8.80418 28.3581 9.34726L19.836 17.8693L11.6417 9.67503C11.0986 9.13196 10.2181 9.13196 9.67503 9.67503C9.13196 10.2181 9.13196 11.0986 9.67503 11.6417L17.8693 19.836L9.34726 28.3581C8.80418 28.9011 8.80418 29.7816 9.34726 30.3247C9.89033 30.8678 10.7708 30.8678 11.3139 30.3247L19.836 21.8026L28.6858 30.6525C29.2289 31.1955 30.1094 31.1955 30.6525 30.6525C31.1955 30.1094 31.1955 29.2289 30.6525 28.6858L21.8026 19.836L30.3247 11.3139C30.8678 10.7708 30.8678 9.89033 30.3247 9.34726Z" stroke="#EF2B2A"/>
<path fill-rule="evenodd" clip-rule="evenodd" d="M28.0974 9.08657C28.7844 8.39953 29.8983 8.39953 30.5854 9.08657C31.2724 9.77361 31.2724 10.8875 30.5854 11.5746L22.324 19.836L30.9132 28.4251C31.6002 29.1122 31.6002 30.2261 30.9132 30.9132C30.2261 31.6002 29.1122 31.6002 28.4251 30.9132L19.836 22.324L11.5746 30.5854C10.8875 31.2724 9.77361 31.2724 9.08657 30.5854C8.39953 29.8983 8.39953 28.7844 9.08657 28.0974L17.348 19.836L9.41434 11.9023C8.7273 11.2153 8.7273 10.1014 9.41434 9.41434C10.1014 8.7273 11.2153 8.7273 11.9023 9.41434L19.836 17.348L28.0974 9.08657ZM19.836 17.8693L11.6417 9.67503C11.0986 9.13196 10.2181 9.13196 9.67503 9.67503C9.13196 10.2181 9.13196 11.0986 9.67503 11.6417L17.8693 19.836L9.34726 28.3581C8.80418 28.9011 8.80418 29.7816 9.34726 30.3247C9.89033 30.8678 10.7708 30.8678 11.3139 30.3247L19.836 21.8026L28.6858 30.6525C29.2289 31.1955 30.1094 31.1955 30.6525 30.6525C31.1955 30.1094 31.1955 29.2289 30.6525 28.6858L21.8026 19.836L30.3247 11.3139C30.8678 10.7708 30.8678 9.89033 30.3247 9.34726C29.7816 8.80418 28.9011 8.80418 28.3581 9.34726L19.836 17.8693Z" stroke="#EF2B2A"/>
</svg>
