<svg width="80" height="80" viewBox="0 0 80 80" fill="none" xmlns="http://www.w3.org/2000/svg">
<circle cx="40" cy="40" r="40" fill="#424242"/>
<path d="M57.6659 35.7269H49.8852C48.314 35.7269 47.3185 34.0374 48.0719 32.6502C48.5238 31.8243 48.9651 31.0093 49.2395 30.4641C50.165 28.6342 51.6824 24.451 49.0996 21.9302C47.7006 20.57 46.3554 20.4998 45.3599 20.7751C44.499 21.0126 43.7726 21.5902 43.2614 22.3243L33.9902 35.6945V57.3179H50.3157C51.3111 57.3179 52.1721 57.0966 52.9038 56.8105C54.5504 56.1682 55.8364 54.8457 56.5897 53.2426C57.639 51.0025 60.2164 45.5184 61.4325 42.0315C63.6924 35.565 57.6659 35.7269 57.6659 35.7269Z" fill="white"/>
<path d="M30.5429 35.7264H21.9336V57.3174H30.5429V35.7264Z" fill="white"/>
</svg>
