<svg width="80" height="80" viewBox="0 0 80 80" fill="none" xmlns="http://www.w3.org/2000/svg">
<circle cx="40" cy="40" r="40" fill="#424242"/>
<path d="M57.6655 35.7269H49.8848C48.3136 35.7269 47.3182 34.0374 48.0715 32.6501C48.5235 31.8243 48.9647 31.0092 49.2391 30.464C50.1646 28.6342 51.682 24.4509 49.0992 21.9302C47.7002 20.57 46.355 20.4998 45.3596 20.7751C44.4986 21.0126 43.7722 21.5901 43.261 22.3242L33.9899 35.6945V57.3179H50.3153C51.3108 57.3179 52.1717 57.0966 52.9035 56.8105C54.55 56.1681 55.836 54.8457 56.5893 53.2426C57.6386 51.0025 60.216 45.5184 61.4321 42.0314C63.692 35.5649 57.6655 35.7269 57.6655 35.7269Z" fill="white"/>
<path d="M30.5428 35.7263H21.9335V57.3173H30.5428V35.7263Z" fill="white"/>
</svg>
