<svg width="80" height="80" viewBox="0 0 80 80" fill="none" xmlns="http://www.w3.org/2000/svg">
<circle cx="40" cy="40" r="40" fill="#424242"/>
<path d="M49.758 32.1773C49.758 30.6184 51.0217 29.3547 52.5806 29.3547H55.4032C56.9621 29.3547 58.2258 30.6184 58.2258 32.1773V57.5805C58.2258 59.1394 56.9621 60.4031 55.4032 60.4031H52.5806C51.0217 60.4031 49.758 59.1394 49.758 57.5805V32.1773Z" fill="white"/>
<path d="M37.0564 49.1128C37.0564 47.5539 38.3201 46.2902 39.879 46.2902H42.7016C44.2604 46.2902 45.5242 47.5539 45.5242 49.1128V57.5805C45.5242 59.1394 44.2604 60.4031 42.7016 60.4031H39.879C38.3201 60.4031 37.0564 59.1394 37.0564 57.5805V49.1128Z" fill="white"/>
<path d="M24.3548 40.6451C24.3548 39.0862 25.6185 37.8225 27.1774 37.8225H30C31.5588 37.8225 32.8225 39.0862 32.8225 40.6451V57.5805C32.8225 59.1394 31.5588 60.4031 30 60.4031H27.1774C25.6185 60.4031 24.3548 59.1394 24.3548 57.5805V40.6451Z" fill="white"/>
<path fill-rule="evenodd" clip-rule="evenodd" d="M53.7688 20.4699L55.7674 22.9563L58.7049 15.4844L50.3603 16.2296L52.5246 18.9221L40.9656 25.9723L33.1797 19.0249L32.6032 18.5104L31.9599 18.9385L22.5782 25.1829C22.1185 25.4889 21.9938 26.1097 22.2998 26.5694C22.6059 27.0292 23.2266 27.1538 23.6864 26.8478L32.4247 21.0316L40.1874 27.9583L40.7408 28.4521L41.3739 28.0659L53.5739 20.6247C53.6467 20.5803 53.7118 20.5281 53.7688 20.4699Z" fill="white"/>
</svg>
