<svg width="90" height="38" viewBox="0 0 90 38" fill="none" xmlns="http://www.w3.org/2000/svg">
<path d="M7.60859 8.1543H4.53027V29.6666H7.60859V8.1543Z" fill="#8E43F0"/>
<path d="M77.2216 8.15855L76.9639 8.10449V11.3071L77.1228 11.3525C80.4761 12.2932 82.8198 15.4028 82.8198 18.9104C82.8198 22.4179 80.4761 25.5275 77.1228 26.4682L76.9639 26.5136V29.7162L77.2238 29.6622C82.2655 28.622 85.926 24.1003 85.926 18.9104C85.9238 13.7204 82.2655 9.1987 77.2216 8.15855Z" fill="#8E43F0"/>
<path d="M75.6838 8.1543H72.6055V29.7163H75.6838V8.1543Z" fill="#8E43F0"/>
<path d="M67.6001 15.669C66.1436 14.3759 64.2941 13.6709 62.3349 13.6709C57.9398 13.6709 54.3652 17.2693 54.3652 21.6937C54.3652 26.1181 57.9419 29.7164 62.3349 29.7164C64.2919 29.7164 66.1436 29.0093 67.6001 27.7162V29.7164H70.3605V13.6709H67.6001V15.669ZM62.3371 26.9377C59.4628 26.9377 57.1256 24.5849 57.1256 21.6915C57.1256 18.8003 59.4628 16.4475 62.3371 16.4475C65.2092 16.4475 67.5485 18.8003 67.5485 21.6915C67.5464 24.5849 65.2092 26.9377 62.3371 26.9377Z" fill="#8E43F0"/>
<path d="M46.3937 13.4977C42.1231 12.1029 37.5519 14.4059 36.0675 18.6336L36.0567 18.6292L35.9901 18.8368L35.9235 19.0444L35.9343 19.0488C34.669 23.3478 37.0341 27.9171 41.294 29.3097C41.8074 29.4784 42.3294 29.5908 42.8535 29.6557C45.4549 29.9693 48.1079 29.0156 49.9231 27.0305L50.1508 26.7796L47.0768 25.7762L46.9887 25.8411C45.5946 26.8402 43.7944 27.117 42.1747 26.5893C39.4057 25.6832 37.859 22.7315 38.641 19.9354L51.6331 24.1803L51.6997 23.9749C53.1024 19.611 50.7244 14.912 46.3937 13.4977ZM40.0888 17.4853C41.5217 16.097 43.6118 15.5975 45.5151 16.2202C47.4162 16.8409 48.819 18.4822 49.1691 20.4522L40.0888 17.4853Z" fill="#8E43F0"/>
<path d="M26.1083 22.0113L30.4454 29.7162H33.8331L29.1716 21.4426C31.7043 20.3354 33.3283 17.8572 33.3283 15.0655C33.3283 11.2271 30.2285 8.10449 26.4155 8.10449C25.3006 8.10449 24.19 8.38994 23.1804 8.93704V8.27533H20.1021V29.7141H23.1804V13.0025C23.8936 11.8607 25.0987 11.1817 26.4155 11.1817C28.5422 11.1817 30.2714 12.9225 30.2714 15.0633C30.2714 17.202 28.5422 18.8866 26.4155 18.9428C24.9547 18.9817 24.1084 18.5557 24.1084 18.5557V21.5789L26.1083 22.0113Z" fill="#8E43F0"/>
<path d="M17.5972 8.15855L17.8572 8.10449V11.3071L17.6982 11.3525C14.3449 12.2932 12.0013 15.4028 12.0013 18.9104C12.0013 22.4179 14.3449 25.5275 17.6982 26.4682L17.8572 26.5136V29.7162L17.5972 29.6622C12.5555 28.622 8.89502 24.1003 8.89502 18.9104C8.89502 13.7204 12.5555 9.1987 17.5972 8.15855Z" fill="#8E43F0"/>
</svg>
