<svg width="116" height="50" viewBox="0 0 116 50" fill="none" xmlns="http://www.w3.org/2000/svg">
<path d="M9.79505 11.3577H5.83203V39.0526H9.79505V11.3577Z" fill="white"/>
<path d="M99.4149 11.3632L99.083 11.2936V15.4166L99.2877 15.4751C103.605 16.6861 106.622 20.6895 106.622 25.2051C106.622 29.7207 103.605 33.724 99.2877 34.935L99.083 34.9935V39.1165L99.4176 39.0469C105.908 37.7079 110.621 31.8866 110.621 25.2051C110.618 18.5235 105.908 12.7023 99.4149 11.3632Z" fill="white"/>
<path d="M97.4357 11.3577H93.4727V39.1167H97.4357V11.3577Z" fill="white"/>
<path d="M87.0288 21.0322C85.1537 19.3674 82.7726 18.4598 80.2504 18.4598C74.5921 18.4598 69.9902 23.0923 69.9902 28.7883C69.9902 34.4843 74.5949 39.1168 80.2504 39.1168C82.7698 39.1168 85.1537 38.2065 87.0288 36.5416V39.1168H90.5825V18.4598H87.0288V21.0322ZM80.2532 35.5394C76.5529 35.5394 73.544 32.5105 73.544 28.7855C73.544 25.0633 76.5529 22.0344 80.2532 22.0344C83.9507 22.0344 86.9624 25.0633 86.9624 28.7855C86.9596 32.5105 83.9507 35.5394 80.2532 35.5394Z" fill="white"/>
<path d="M59.7271 18.2368C54.2292 16.4411 48.3441 19.406 46.4331 24.8487L46.4193 24.8431L46.3336 25.1104L46.2478 25.3777L46.2617 25.3832C44.6327 30.9178 47.6776 36.8003 53.1617 38.5932C53.8227 38.8103 54.4947 38.9551 55.1695 39.0386C58.5185 39.4423 61.934 38.2145 64.2709 35.6589L64.564 35.3359L60.6065 34.0442L60.4931 34.1277C58.6983 35.4139 56.3808 35.7702 54.2956 35.0909C50.7308 33.9244 48.7396 30.1243 49.7462 26.5247L66.4723 31.9896L66.558 31.7251C68.3639 26.1071 65.3024 20.0575 59.7271 18.2368ZM51.6102 23.3704C53.4548 21.5831 56.1457 20.94 58.596 21.7418C61.0435 22.5408 62.8494 24.6538 63.3002 27.19L51.6102 23.3704Z" fill="white"/>
<path d="M33.6123 29.1973L39.196 39.1165H43.5572L37.556 28.4651C40.8166 27.0397 42.9073 23.8493 42.9073 20.2552C42.9073 15.3136 38.9167 11.2936 34.0078 11.2936C32.5725 11.2936 31.1427 11.6611 29.8429 12.3654V11.5135H25.8799V39.1138H29.8429V17.5993C30.7611 16.1293 32.3125 15.2552 34.0078 15.2552C36.7457 15.2552 38.972 17.4963 38.972 20.2524C38.972 23.0057 36.7457 25.1744 34.0078 25.2468C32.1272 25.2969 31.0376 24.7485 31.0376 24.7485V28.6405L33.6123 29.1973Z" fill="white"/>
<path d="M22.6544 11.3632L22.989 11.2936V15.4166L22.7844 15.4751C18.4674 16.6861 15.4501 20.6895 15.4501 25.2051C15.4501 29.7207 18.4674 33.724 22.7844 34.935L22.989 34.9935V39.1165L22.6544 39.0469C16.1637 37.7079 11.4512 31.8866 11.4512 25.2051C11.4512 18.5235 16.1637 12.7023 22.6544 11.3632Z" fill="white"/>
</svg>
