<svg width="40" height="40" viewBox="0 0 40 40" fill="none" xmlns="http://www.w3.org/2000/svg">
<path fill-rule="evenodd" clip-rule="evenodd" d="M6 20C6 19.4477 6.48215 19 7.07692 19H32.9231C33.5178 19 34 19.4477 34 20C34 20.5523 33.5178 21 32.9231 21H7.07692C6.48215 21 6 20.5523 6 20Z" fill="#8E8E8E" stroke="#8E8E8E" stroke-width="0.6" stroke-linecap="round"/>
<path fill-rule="evenodd" clip-rule="evenodd" d="M6 10C6 7.79086 7.79086 6 10 6H12.9091C13.5116 6 14 6.48842 14 7.09091C14 7.6934 13.5116 8.18182 12.9091 8.18182H10C8.99585 8.18182 8.18182 8.99585 8.18182 10V12.9091C8.18182 13.5116 7.6934 14 7.09091 14C6.48842 14 6 13.5116 6 12.9091V10Z" fill="#8E8E8E" stroke="#8E8E8E" stroke-width="0.3" stroke-linecap="round" stroke-linejoin="round"/>
<path fill-rule="evenodd" clip-rule="evenodd" d="M6 30C6 32.2091 7.79086 34 10 34H12.9091C13.5116 34 14 33.5116 14 32.9091C14 32.3066 13.5116 31.8182 12.9091 31.8182H10C8.99585 31.8182 8.18182 31.0042 8.18182 30V27.0909C8.18182 26.4884 7.6934 26 7.09091 26C6.48842 26 6 26.4884 6 27.0909V30Z" fill="#8E8E8E" stroke="#8E8E8E" stroke-width="0.3" stroke-linecap="round" stroke-linejoin="round"/>
<path fill-rule="evenodd" clip-rule="evenodd" d="M34 30C34 32.2091 32.2091 34 30 34H27.0909C26.4884 34 26 33.5116 26 32.9091C26 32.3066 26.4884 31.8182 27.0909 31.8182H30C31.0042 31.8182 31.8182 31.0042 31.8182 30V27.0909C31.8182 26.4884 32.3066 26 32.9091 26C33.5116 26 34 26.4884 34 27.0909V30Z" fill="#8E8E8E" stroke="#8E8E8E" stroke-width="0.3" stroke-linecap="round" stroke-linejoin="round"/>
<path fill-rule="evenodd" clip-rule="evenodd" d="M34 10C34 7.79086 32.2091 6 30 6H27.0909C26.4884 6 26 6.48842 26 7.09091C26 7.6934 26.4884 8.18182 27.0909 8.18182H30C31.0042 8.18182 31.8182 8.99585 31.8182 10V12.9091C31.8182 13.5116 32.3066 14 32.9091 14C33.5116 14 34 13.5116 34 12.9091V10Z" fill="#8E8E8E" stroke="#8E8E8E" stroke-width="0.3" stroke-linecap="round" stroke-linejoin="round"/>
</svg>
