<svg width="48" height="48" viewBox="0 0 48 48" fill="none" xmlns="http://www.w3.org/2000/svg">
<path d="M4.79999 15.3484C4.79999 13.7926 5.80735 12.5313 7.04999 12.5313H14.925V35.0687H7.04999C5.80735 35.0687 4.79999 33.8074 4.79999 32.2515V15.3484Z" fill="#BDBDBD"/>
<path d="M35.3689 0.255774L14.3276 12.231C14.0063 12.4139 13.8 12.815 13.8 13.2569V34.3431C13.8 34.785 14.0063 35.1861 14.3276 35.369L35.3689 47.3442C36.8587 48.1921 38.55 46.8285 38.55 44.7796V2.82044C38.55 0.771536 36.8586 -0.592069 35.3689 0.255774Z" fill="white"/>
<path d="M38.55 18.1656H40.8C42.0426 18.1656 43.05 19.4269 43.05 20.9828V26.6172C43.05 28.1731 42.0426 29.4344 40.8 29.4344H38.55V18.1656Z" fill="#BDBDBD"/>
</svg>
