<svg width="80" height="80" viewBox="0 0 80 80" fill="none" xmlns="http://www.w3.org/2000/svg">
<circle cx="40" cy="40" r="40" fill="#424242"/>
<path d="M49.7582 32.1774C49.7582 30.6186 51.0219 29.3548 52.5808 29.3548H55.4034C56.9622 29.3548 58.2259 30.6186 58.2259 32.1774V57.5806C58.2259 59.1395 56.9622 60.4032 55.4034 60.4032H52.5808C51.0219 60.4032 49.7582 59.1395 49.7582 57.5806V32.1774Z" fill="white"/>
<path d="M37.0566 49.1129C37.0566 47.554 38.3203 46.2903 39.8792 46.2903H42.7018C44.2606 46.2903 45.5243 47.554 45.5243 49.1129V57.5806C45.5243 59.1395 44.2606 60.4032 42.7018 60.4032H39.8792C38.3203 60.4032 37.0566 59.1395 37.0566 57.5806V49.1129Z" fill="white"/>
<path d="M24.355 40.6452C24.355 39.0863 25.6187 37.8226 27.1776 37.8226H30.0001C31.559 37.8226 32.8227 39.0863 32.8227 40.6452V57.5806C32.8227 59.1395 31.559 60.4032 30.0001 60.4032H27.1776C25.6187 60.4032 24.355 59.1395 24.355 57.5806V40.6452Z" fill="white"/>
<path fill-rule="evenodd" clip-rule="evenodd" d="M53.7689 20.4698L55.7675 22.9563L58.7051 15.4843L50.3604 16.2296L52.5247 18.922L40.9657 25.9723L33.1799 19.0248L32.6033 18.5103L31.96 18.9385L22.5783 25.1829C22.1186 25.4889 21.994 26.1097 22.3 26.5694C22.606 27.0292 23.2268 27.1538 23.6865 26.8478L32.4249 21.0316L40.1875 27.9583L40.7409 28.4521L41.374 28.0659L53.574 20.6247C53.6468 20.5803 53.7119 20.5281 53.7689 20.4698Z" fill="white"/>
</svg>
