<svg width="42" height="42" viewBox="0 0 42 42" fill="none" xmlns="http://www.w3.org/2000/svg">
<path fill-rule="evenodd" clip-rule="evenodd" d="M15.5 7C14.6716 7 14 7.68378 14 8.52727V9.54545H11C8.79086 9.54545 7 11.3689 7 13.6182V30.9273C7 33.1766 8.79086 35 11 35H31C33.2091 35 35 33.1766 35 30.9273V13.6182C35 11.3689 33.2091 9.54545 31 9.54545H28V8.52727C28 7.68378 27.3284 7 26.5 7C25.6716 7 25 7.68378 25 8.52727V9.54545H17V8.52727C17 7.68378 16.3284 7 15.5 7ZM32.5 17.6909V13.6182C32.5 12.7747 31.8284 12.0909 31 12.0909H28V12.6C28 13.4435 27.3284 14.1273 26.5 14.1273C25.6716 14.1273 25 13.4435 25 12.6V12.0909H17V12.6C17 13.4435 16.3284 14.1273 15.5 14.1273C14.6716 14.1273 14 13.4435 14 12.6V12.0909H11C10.1716 12.0909 9.5 12.7747 9.5 13.6182V17.6909H32.5ZM9.5 20H32.5V30.9273C32.5 31.7708 31.8284 32.4545 31 32.4545H11C10.1716 32.4545 9.5 31.7708 9.5 30.9273V20Z" fill="#8E8E8E"/>
</svg>
