<svg width="39" height="40" viewBox="0 0 39 40" fill="none" xmlns="http://www.w3.org/2000/svg">
<path fill-rule="evenodd" clip-rule="evenodd" d="M19.5591 9.61337C13.9109 9.61337 9.33212 14.1922 9.33212 19.8404C9.33212 25.4886 13.9109 30.0674 19.5591 30.0674C25.2074 30.0674 29.7862 25.4886 29.7862 19.8404C29.7862 14.1922 25.2074 9.61337 19.5591 9.61337ZM6.11914 19.8404C6.11914 12.4177 12.1364 6.40039 19.5591 6.40039C26.9818 6.40039 32.9991 12.4177 32.9991 19.8404C32.9991 27.2631 26.9818 33.2804 19.5591 33.2804C12.1364 33.2804 6.11914 27.2631 6.11914 19.8404Z" fill="#616161"/>
<rect x="30.2891" y="6.40039" width="3.552" height="34.1781" rx="1.776" transform="rotate(45 30.2891 6.40039)" fill="#616161"/>
</svg>
