<svg width="53" height="53" viewBox="0 0 53 53" fill="none" xmlns="http://www.w3.org/2000/svg">
<path fill-rule="evenodd" clip-rule="evenodd" d="M19.375 8.75C18.3395 8.75 17.5 9.60473 17.5 10.6591V11.9318H13.75C10.9886 11.9318 8.75 14.2111 8.75 17.0227V38.6591C8.75 41.4707 10.9886 43.75 13.75 43.75H38.75C41.5114 43.75 43.75 41.4707 43.75 38.6591V17.0227C43.75 14.2111 41.5114 11.9318 38.75 11.9318H35V10.6591C35 9.60473 34.1605 8.75 33.125 8.75C32.0895 8.75 31.25 9.60473 31.25 10.6591V11.9318H21.25V10.6591C21.25 9.60473 20.4105 8.75 19.375 8.75ZM40.625 22.1136V17.0227C40.625 15.9684 39.7855 15.1136 38.75 15.1136H35V15.75C35 16.8044 34.1605 17.6591 33.125 17.6591C32.0895 17.6591 31.25 16.8044 31.25 15.75V15.1136H21.25V15.75C21.25 16.8044 20.4105 17.6591 19.375 17.6591C18.3395 17.6591 17.5 16.8044 17.5 15.75V15.1136H13.75C12.7145 15.1136 11.875 15.9684 11.875 17.0227V22.1136H40.625ZM11.875 25H40.625V38.6591C40.625 39.7135 39.7855 40.5682 38.75 40.5682H13.75C12.7145 40.5682 11.875 39.7135 11.875 38.6591V25Z" fill="black"/>
</svg>
