<svg width="48" height="48" viewBox="0 0 48 48" fill="none" xmlns="http://www.w3.org/2000/svg">
<path d="M36 24C36 30.6274 30.6274 36 24 36C17.3726 36 12 30.6274 12 24C12 17.3726 17.3726 12 24 12C30.6274 12 36 17.3726 36 24Z" fill="#BDBDBD"/>
<path d="M19.2857 19.286C18.9137 19.6579 18.9137 20.2609 19.2857 20.6328L22.6528 24L19.2857 27.3672C18.9137 27.7391 18.9137 28.3421 19.2857 28.714C19.6576 29.086 20.2606 29.086 20.6325 28.714L23.9997 25.3469L27.3669 28.714C27.7388 29.086 28.3418 29.086 28.7138 28.714C29.0857 28.3421 29.0857 27.7391 28.7138 27.3672L25.3466 24L28.7138 20.6328C29.0857 20.2609 29.0857 19.6579 28.7138 19.286C28.3418 18.914 27.7388 18.914 27.3669 19.286L23.9997 22.6531L20.6325 19.286C20.2606 18.914 19.6576 18.914 19.2857 19.286Z" fill="white"/>
</svg>
