<svg width="42" height="42" viewBox="0 0 42 42" fill="none" xmlns="http://www.w3.org/2000/svg">
<circle cx="21" cy="21" r="12.5" stroke="#616161" stroke-width="3"/>
<path d="M19.7169 22.1322L19.7169 22.1322L19.7167 22.1333C19.7024 22.2032 19.6894 22.2755 19.6776 22.35C19.5676 23.0448 20.1558 23.6074 20.8363 23.6074C21.5174 23.6074 22.0114 23.046 22.2147 22.4376C22.2212 22.4183 22.2278 22.3992 22.2347 22.3803C22.3519 22.0733 22.5712 21.7748 22.8996 21.4857L22.8996 21.4857L22.9014 21.4841C23.2933 21.1218 23.6528 20.771 23.9799 20.4316C24.3117 20.0873 24.581 19.7154 24.787 19.316L24.7873 19.3155C24.9966 18.9035 25.1 18.4362 25.1 17.916C25.1 17.1736 24.94 16.5371 24.6146 16.0114C24.2895 15.4804 23.8205 15.0802 23.2118 14.8106C22.6039 14.5356 21.8789 14.4 21.04 14.4C20.2769 14.4 19.5857 14.5301 18.968 14.7922C18.3471 15.0498 17.8493 15.4492 17.477 15.9896L17.4769 15.9898C17.3303 16.2039 17.2118 16.4403 17.1211 16.6986C16.9884 17.0771 17.0949 17.437 17.3303 17.698C17.5639 17.9571 17.925 18.1208 18.3123 18.1208H18.665C18.9493 18.1208 19.1866 17.9953 19.3832 17.8199C19.5785 17.6457 19.7389 17.4178 19.8727 17.2004C20.0055 16.9938 20.1722 16.8442 20.3728 16.7481L20.3728 16.7481L20.3747 16.7472C20.5792 16.6439 20.8005 16.5919 21.04 16.5919C21.3357 16.5919 21.5716 16.6479 21.7535 16.7532L21.7535 16.7532L21.7545 16.7538C21.942 16.8592 22.0815 17.0142 22.1738 17.2226L22.1738 17.2226L22.1752 17.2255C22.2732 17.4292 22.3251 17.6927 22.3251 18.0208C22.3251 18.2979 22.2689 18.5474 22.1581 18.771C22.0446 18.9942 21.8878 19.2136 21.6862 19.429C21.4816 19.6475 21.2413 19.8782 20.965 20.1211L20.965 20.1211L20.9636 20.1224C20.6272 20.4298 20.3549 20.7419 20.1482 21.059L20.1482 21.059L20.1475 21.0601C19.9454 21.3795 19.8021 21.7371 19.7169 22.1322ZM19.7458 25.2084C19.4645 25.4728 19.324 25.8082 19.324 26.207C19.324 26.5953 19.4653 26.9271 19.7453 27.1964C20.0282 27.4684 20.4043 27.6 20.8624 27.6C21.3147 27.6 21.6875 27.4683 21.9701 27.1968C22.256 26.9278 22.4008 26.5959 22.4008 26.207C22.4008 25.8076 22.2568 25.4721 21.9697 25.208C21.6872 24.9368 21.3145 24.8052 20.8624 24.8052C20.4045 24.8052 20.0286 24.9367 19.7458 25.2084Z" fill="#616161" stroke="#616161" stroke-width="0.2"/>
</svg>
